<?xml version="1.0" encoding="UTF-8"?>
<svg id="_x32_" xmlns="http://www.w3.org/2000/svg" version="1.1" xmlns:xlink="http://www.w3.org/1999/xlink" viewBox="0 0 800 800">
  <!-- Generator: Adobe Illustrator 29.2.1, SVG Export Plug-In . SVG Version: 2.1.0 Build 116)  -->
  <defs>
    <style>
      .st0 {
        fill: #00aa04;
      }

      .st1 {
        fill: #ffcd15;
        fill-rule: evenodd;
      }
    </style>
  </defs>
  <path class="st0" d="M772.9,631.9c1.1-3.8,1.7-7.8,1.7-11.9,0-20.2-14-37.2-32.8-41.9-5.2-22-24.9-38.4-48.5-38.4s-43.3,16.4-48.5,38.4c-18.8,4.7-32.8,21.6-32.8,41.9s.6,8.1,1.7,11.9c-11.8,9.1-19.4,23.4-19.4,39.4,0,27.5,22.3,49.8,49.8,49.8s13.6-1.4,19.6-4c.9.8,1.8,1.5,2.8,2.2v64.5h53.4v-64.5c1-.7,1.9-1.4,2.7-2.1,6.1,2.6,12.7,4,19.7,4,27.5,0,49.8-22.3,49.8-49.8,0-16.1-7.6-30.3-19.4-39.4ZM704.7,768.5h-22.9v-42c3.7,1,7.5,1.4,11.4,1.4s7.8-.5,11.4-1.4v42ZM742.4,705.9c-4.7,0-9.3-.9-13.6-2.8l-8.7-3.7h-.1c0,.1-7.1,6.1-7.1,6.1-2.5,2.1-5.2,3.7-8.2,4.9-3.6,1.5-7.5,2.3-11.4,2.3s-7.8-.8-11.4-2.3c-2.9-1.2-5.7-2.9-8.2-4.9l-7.1-6h-.1c0-.1-8.7,3.6-8.7,3.6-4.3,1.9-8.9,2.8-13.6,2.8-19.1,0-34.6-15.5-34.6-34.6s4.9-20.7,13.5-27.3l8.2-6.3-2.9-10c-.7-2.6-1.1-5.2-1.1-7.7,0-12.8,8.7-24,21.2-27l9-2.2,2.2-9.1c3.7-15.7,17.5-26.6,33.6-26.6s29.9,10.9,33.6,26.6l2.1,9.1,9.1,2.2c12.5,3.1,21.2,14.2,21.2,27s-.4,5.1-1.1,7.7l-2.9,10,8.2,6.3c8.6,6.6,13.5,16.6,13.5,27.3,0,19.1-15.5,34.6-34.6,34.6Z"/>
  <g>
    <path d="M231.9,666.5h348.3l-41-169.8h-266.4l-41,169.8ZM550.5,643.1h-83.1l-4.9-52.7h75.3l12.7,52.7ZM520.8,520.1l12.7,52.7h-72.7l-4.9-52.7h64.9ZM373.7,520.1h64.6l4.9,52.7h-74.4l4.9-52.7ZM367.2,590.4h77.7l4.9,52.7h-87.5l4.9-52.7ZM291.4,520.1h64.7l-4.9,52.7h-72.6l12.7-52.7ZM349.6,590.4l-4.9,52.7h-83l12.7-52.7h75.2Z"/>
    <polygon points="245.6 702 566.6 702 580.3 674.7 231.9 674.7 245.6 702"/>
    <polygon points="423.8 713.1 388.4 713.1 386.5 744 350.9 761.7 350.9 783.8 461.4 783.8 461.4 761.7 425.7 744 423.8 713.1"/>
  </g>
  <path class="st0" d="M698.2,393.5c1.2-4.2,1.9-8.7,1.9-13.2,0-22.5-15.6-41.4-36.5-46.6-5.8-24.4-27.7-42.7-53.9-42.7s-48.2,18.2-54,42.7c-20.9,5.2-36.5,24.1-36.5,46.6s.7,9,1.9,13.2c-13.1,10.2-21.5,26-21.5,43.9,0,30.6,24.8,55.4,55.4,55.4s15.1-1.6,21.8-4.5c1,.8,2,1.7,3.1,2.4v71.7h59.4v-71.8c1.1-.8,2.1-1.5,3-2.4,6.7,2.9,14.1,4.5,21.9,4.5,30.6,0,55.4-24.8,55.4-55.4,0-17.9-8.4-33.7-21.5-43.9ZM622.3,545.6h-25.5v-46.7c4.1,1.1,8.3,1.6,12.7,1.6s8.7-.5,12.7-1.6v46.7ZM664.3,475.9c-5.3,0-10.3-1-15.2-3.1l-9.6-4.2h-.1c0,.1-7.9,6.8-7.9,6.8-2.8,2.3-5.8,4.2-9.1,5.5-4,1.7-8.3,2.5-12.7,2.5s-8.7-.9-12.7-2.5c-3.3-1.3-6.3-3.2-9.1-5.5l-7.9-6.7h-.1c0-.1-9.6,4-9.6,4-4.8,2.1-9.9,3.1-15.2,3.1-21.2,0-38.5-17.3-38.5-38.5s5.4-23,15-30.4l9.1-7-3.2-11.1c-.8-2.9-1.2-5.8-1.2-8.6,0-14.3,9.7-26.7,23.6-30.1l10.1-2.5,2.4-10.1c4.1-17.4,19.5-29.6,37.4-29.6s33.3,12.2,37.4,29.6l2.4,10.1,10.1,2.5c13.9,3.4,23.6,15.8,23.6,30.1s-.4,5.7-1.2,8.6l-3.2,11.1,9.1,7c9.5,7.4,15,18.5,15,30.4,0,21.2-17.3,38.5-38.5,38.5Z"/>
  <path class="st0" d="M311.3,393.5c1.2-4.2,1.9-8.7,1.9-13.2,0-22.5-15.6-41.4-36.5-46.6-5.8-24.4-27.7-42.7-53.9-42.7s-48.2,18.2-54,42.7c-20.9,5.2-36.5,24.1-36.5,46.6s.7,9,1.9,13.2c-13.1,10.2-21.5,26-21.5,43.9,0,30.6,24.8,55.4,55.4,55.4s15.1-1.6,21.8-4.5c1,.8,2,1.7,3.1,2.4v71.7h59.4v-71.8c1.1-.8,2.1-1.5,3-2.4,6.7,2.9,14.1,4.5,21.9,4.5,30.6,0,55.4-24.8,55.4-55.4,0-17.9-8.4-33.7-21.5-43.9ZM235.5,545.6h-25.5v-46.7c4.1,1.1,8.3,1.6,12.7,1.6s8.7-.5,12.7-1.6v46.7ZM277.4,475.9c-5.3,0-10.3-1-15.2-3.1l-9.6-4.2h-.1c0,.1-7.9,6.8-7.9,6.8-2.8,2.3-5.8,4.2-9.1,5.5-4,1.7-8.3,2.5-12.7,2.5s-8.7-.9-12.7-2.5c-3.3-1.3-6.3-3.2-9.1-5.5l-7.9-6.7h-.1c0-.1-9.6,4-9.6,4-4.8,2.1-9.9,3.1-15.2,3.1-21.2,0-38.5-17.3-38.5-38.5s5.4-23,15-30.4l9.1-7-3.2-11.1c-.8-2.9-1.2-5.8-1.2-8.6,0-14.3,9.7-26.7,23.6-30.1l10.1-2.5,2.4-10.1c4.1-17.4,19.5-29.6,37.4-29.6s33.3,12.2,37.4,29.6l2.4,10.1,10.1,2.5c13.9,3.4,23.6,15.8,23.6,30.1s-.4,5.7-1.2,8.6l-3.2,11.1,9.1,7c9.5,7.4,15,18.5,15,30.4,0,21.2-17.3,38.5-38.5,38.5Z"/>
  <path class="st0" d="M205.7,617.1c1.2-4.1,1.9-8.5,1.9-13.1,0-22.2-15.4-40.8-36-45.9-5.7-24.1-27.3-42.1-53.2-42.1s-47.5,18-53.2,42.1c-20.6,5.1-36,23.7-36,45.9s.7,8.9,1.9,13.1c-12.9,10-21.2,25.6-21.2,43.3,0,30.2,24.5,54.7,54.7,54.7s14.9-1.6,21.5-4.4c1,.8,2,1.6,3.1,2.4v70.8h58.6v-70.8c1-.8,2.1-1.5,3-2.3,6.7,2.8,13.9,4.4,21.6,4.4,30.2,0,54.7-24.5,54.7-54.7,0-17.6-8.3-33.2-21.2-43.3ZM130.9,767.1h-25.1v-46.1c4,1,8.2,1.6,12.6,1.6s8.5-.5,12.6-1.6v46.1ZM172.3,698.3c-5.2,0-10.2-1-15-3.1l-9.5-4.1h-.1c0,.1-7.8,6.7-7.8,6.7-2.7,2.3-5.7,4.1-9,5.4-4,1.6-8.2,2.5-12.6,2.5s-8.6-.9-12.6-2.5c-3.2-1.3-6.2-3.1-9-5.4l-7.8-6.6h-.1c0-.1-9.5,4-9.5,4-4.8,2.1-9.8,3.1-15,3.1-20.9,0-38-17-38-38s5.4-22.7,14.8-30l8.9-6.9-3.1-10.9c-.8-2.8-1.2-5.7-1.2-8.5,0-14.1,9.6-26.3,23.3-29.7l9.9-2.5,2.4-10c4.1-17.2,19.3-29.2,36.9-29.2s32.9,12,36.9,29.2l2.3,10,10,2.5c13.7,3.4,23.3,15.6,23.3,29.7s-.4,5.6-1.2,8.5l-3.1,10.9,8.9,6.9c9.4,7.3,14.8,18.2,14.8,30,0,20.9-17,38-38,38Z"/>
  <g>
    <path class="st1" d="M418.6,72c-42.3,0-76.7,34.3-76.7,76.7s34.3,76.7,76.7,76.7,76.7-34.3,76.7-76.7-34.3-76.7-76.7-76.7ZM418.6,216.8c-37.6,0-68.1-30.5-68.1-68.1s30.5-68.1,68.1-68.1,68.1,30.5,68.1,68.1-30.5,68.1-68.1,68.1Z"/>
    <path class="st1" d="M418.6,97.6c-2.4,0-4.3,1.9-4.3,4.3s1.9,4.3,4.3,4.3c23.5,0,42.6,19.1,42.6,42.6s1.9,4.3,4.3,4.3,4.3-1.9,4.3-4.3c0-28.2-22.9-51.1-51.1-51.1Z"/>
    <path class="st1" d="M550.7,144.4h-42.6c-2.4,0-4.3,1.9-4.3,4.3s1.9,4.3,4.3,4.3h42.6c2.4,0,4.3-1.9,4.3-4.3s-1.9-4.3-4.3-4.3Z"/>
    <path class="st1" d="M331.1,167.7l-16.5,4.4c-2.3.6-3.6,2.9-3,5.2.6,2.3,2.9,3.6,5.2,3l16.5-4.4c2.3-.6,3.6-2.9,3-5.2-.6-2.3-2.9-3.6-5.2-3Z"/>
    <path class="st1" d="M492.4,106.1c1.2,2,3.8,2.7,5.8,1.6l36.9-21.3c2-1.2,2.7-3.8,1.6-5.8-1.2-2-3.8-2.7-5.8-1.6l-36.9,21.3c-2,1.2-2.7,3.8-1.6,5.8Z"/>
    <path class="st1" d="M358.4,208.9c-1.7-1.7-4.4-1.7-6,0l-12,12c-1.7,1.7-1.7,4.4,0,6,1.7,1.7,4.4,1.7,6,0l12-12c1.7-1.7,1.7-4.4,0-6Z"/>
    <path class="st1" d="M461.2,74.9c2,1.2,4.6.5,5.8-1.6l21.3-36.9c1.2-2,.5-4.6-1.6-5.8-2-1.2-4.6-.5-5.8,1.6l-21.3,36.9c-1.2,2-.5,4.6,1.6,5.8Z"/>
    <path class="st1" d="M396.6,231c-2.3-.6-4.6.7-5.2,3l-4.4,16.5c-.6,2.3.7,4.6,3,5.2,2.3.6,4.6-.7,5.2-3l4.4-16.5c.6-2.3-.7-4.6-3-5.2Z"/>
    <path class="st1" d="M418.6,63.5c2.4,0,4.3-1.9,4.3-4.3V16.7c0-2.4-1.9-4.3-4.3-4.3s-4.3,1.9-4.3,4.3v42.6c0,2.4,1.9,4.3,4.3,4.3Z"/>
    <path class="st1" d="M445.9,234c-.6-2.3-2.9-3.6-5.2-3-2.3.6-3.6,2.9-3,5.2l4.4,16.5c.6,2.3,3,3.6,5.2,3s3.6-2.9,3-5.2l-4.4-16.5Z"/>
    <path class="st1" d="M370.2,73.4c1.2,2,3.8,2.7,5.8,1.6,2-1.2,2.7-3.8,1.6-5.8l-21.3-36.9c-1.2-2-3.8-2.7-5.8-1.6-2,1.2-2.7,3.8-1.6,5.8l21.3,36.9Z"/>
    <path class="st1" d="M484.9,208.9c-1.7-1.7-4.4-1.7-6,0-1.7,1.7-1.7,4.4,0,6l12,12c1.7,1.7,4.4,1.7,6,0,1.7-1.7,1.7-4.3,0-6l-12-12Z"/>
    <path class="st1" d="M302.1,86.4l36.9,21.3c2,1.2,4.6.5,5.8-1.6,1.2-2,.5-4.6-1.6-5.8l-36.9-21.3c-2-1.2-4.6-.5-5.8,1.6-1.2,2-.5,4.6,1.6,5.8Z"/>
    <path class="st1" d="M503.9,176l16.5,4.4c2.3.6,4.6-.7,5.2-3,.6-2.3-.7-4.6-3-5.2l-16.5-4.4c-2.3-.6-4.6.7-5.2,3-.6,2.3.7,4.6,3,5.2Z"/>
    <path class="st1" d="M333.4,148.7c0-2.4-1.9-4.3-4.3-4.3h-42.6c-2.4,0-4.3,1.9-4.3,4.3,0,2.3,1.9,4.3,4.3,4.3h42.6c2.3,0,4.3-1.9,4.3-4.3Z"/>
    <path class="st1" d="M506.1,129.6l16.5-4.4c2.3-.6,3.6-3,3-5.2-.6-2.3-2.9-3.6-5.2-3l-16.5,4.4c-2.3.6-3.6,2.9-3,5.2.6,2.3,2.9,3.6,5.2,3Z"/>
    <path class="st1" d="M344.8,191.3c-1.2-2-3.8-2.7-5.8-1.6l-36.9,21.3c-2,1.2-2.7,3.8-1.6,5.8,1.2,2,3.8,2.7,5.8,1.6l36.9-21.3c2-1.2,2.7-3.8,1.6-5.8Z"/>
    <path class="st1" d="M478.9,88.4c1.7,1.7,4.4,1.7,6,0l12-12c1.7-1.7,1.7-4.4,0-6-1.7-1.7-4.3-1.7-6,0l-12,12c-1.7,1.7-1.7,4.4,0,6Z"/>
    <path class="st1" d="M376,222.5c-2-1.2-4.6-.5-5.8,1.6l-21.3,36.9c-1.2,2-.5,4.6,1.6,5.8,2,1.2,4.6.5,5.8-1.6l21.3-36.9c1.2-2,.5-4.6-1.6-5.8Z"/>
    <path class="st1" d="M440.7,66.4c2.3.6,4.6-.7,5.2-3l4.4-16.5c.6-2.3-.7-4.6-3-5.2-2.3-.6-4.6.7-5.2,3l-4.4,16.5c-.6,2.3.7,4.6,3,5.2Z"/>
    <path class="st1" d="M418.6,233.9c-2.4,0-4.3,1.9-4.3,4.3v42.6c0,2.3,1.9,4.3,4.3,4.3s4.3-1.9,4.3-4.3v-42.6c0-2.3-1.9-4.3-4.3-4.3Z"/>
    <path class="st1" d="M391.4,63.4c.6,2.3,2.9,3.6,5.2,3,2.3-.6,3.6-2.9,3-5.2l-4.4-16.5c-.6-2.3-3-3.6-5.2-3-2.3.6-3.6,2.9-3,5.2l4.4,16.5Z"/>
    <path class="st1" d="M467,224c-1.2-2-3.8-2.7-5.8-1.6-2,1.2-2.7,3.8-1.6,5.8l21.3,36.9c1.2,2,3.8,2.7,5.8,1.6,2-1.2,2.7-3.8,1.6-5.8l-21.3-36.9Z"/>
    <path class="st1" d="M352.4,88.4c1.6,1.7,4.4,1.7,6,0,1.7-1.7,1.6-4.3,0-6l-12-12c-1.7-1.7-4.4-1.7-6,0-1.7,1.7-1.7,4.3,0,6l12,12Z"/>
    <path class="st1" d="M535.1,211l-36.9-21.3c-2-1.2-4.6-.5-5.8,1.6-1.2,2-.5,4.6,1.6,5.8l36.9,21.3c2,1.2,4.6.5,5.8-1.6,1.2-2,.5-4.6-1.6-5.8Z"/>
    <path class="st1" d="M333.3,121.4l-16.5-4.4c-2.3-.6-4.6.7-5.2,3-.6,2.3.7,4.6,3,5.2l16.5,4.4c2.3.6,4.6-.7,5.2-3,.6-2.3-.7-4.6-3-5.2Z"/>
  </g>
  <g id="Layer_2">
    <g>
      <path class="st0" d="M137.4,689.3s0,0,0,0c0,0,0,0,0,0,0,.1.1.3.2.4h0c.2.4.6.7,1.1.7,0,0,0,0,0,0,0,0,0,0,0,0h0s0,0,.1,0c0,0,0,0,0,0,0,0,0,0,.1,0,0,0,0,0,0,0,0,0,0,0,.1,0,0,0,0,0,0,0,0,0,0,0,.1,0,0,0,0,0,0,0,.2,0,.3-.2.5-.3h0c0-.1.1-.2.2-.3,0,0,0,0,0,0,7.1-7.9,14.6-13.2,21.2-18,2.5-1.8,4.8-3.4,7-5.1h0c5.5-4.3,11-9.3,13.9-17.2h0c1-2.9,1.7-5.9,1.9-9.4.8-10.5-1.4-20.9-6.3-30.1-.2-.4-.6-.6-1-.7-.4,0-.9.1-1.2.4-1.4,1.5-3,3-4.8,4.6-.6.5-.6,1.3-.1,1.9.5.6,1.3.6,1.9.1,1.4-1.2,2.6-2.3,3.7-3.5,4,8.4,5.8,17.7,5.1,27-.2,2.7-.6,5.1-1.3,7.4-.1,0-.2,0-.3-.1,0,0-.2,0-.3,0-.2,0-.5-.2-.7-.2,0,0,0,0-.1,0-.3,0-.6-.2-.8-.3,0,0-.2,0-.3,0-.2,0-.4-.1-.6-.2-.1,0-.2,0-.3,0-.2,0-.4,0-.6-.1,0,0-.2,0-.3,0-.3,0-.6-.1-.9-.2,0,0,0,0-.1,0-.2,0-.5,0-.7-.1-.1,0-.2,0-.3,0-.2,0-.4,0-.6,0-.1,0-.2,0-.3,0-.2,0-.4,0-.6,0,0,0-.2,0-.3,0-.3,0-.6,0-.9-.1,0,0-.2,0-.2,0-.2,0-.4,0-.6,0-.1,0-.2,0-.3,0-.2,0-.4,0-.6,0-.1,0-.2,0-.3,0-.2,0-.5,0-.7,0,0,0-.1,0-.2,0-.3,0-.6,0-.8,0,0,0-.2,0-.3,0-.2,0-.4,0-.6,0-.1,0-.2,0-.3,0-.2,0-.4,0-.6,0,0,0-.2,0-.3,0-.3,0-.5,0-.8,0s0,0-.1,0c-.2,0-.4,0-.7,0,0,0-.2,0-.3,0-.2,0-.3,0-.5,0,0,0-.2,0-.3,0-.2,0-.4,0-.6,0,0,0-.1,0-.2,0-.3,0-.5,0-.7,0,0,0-.1,0-.2,0-.2,0-.4,0-.5,0,0,0-.2,0-.3,0-.2,0-.3,0-.5,0,0,0-.2,0-.2,0-.2,0-.4,0-.6,0,0,0,0,0-.1,0-.2,0-.4,0-.7,0,0,0-.1,0-.2,0-.1,0-.2,0-.3,0,0,0,0,0,0,0,.4-.4.8-.7,1.2-1.1.1-.1.2-.2.4-.3.3-.3.6-.5.8-.8.1-.1.3-.3.4-.4.3-.3.6-.5.9-.7.1-.1.3-.2.4-.3.4-.3.8-.7,1.3-1h0c.4-.3.8-.6,1.2-.9,4.2-3.2,7.5-6.6,9.8-10,.4-.6.2-1.4-.4-1.9-.6-.4-1.4-.2-1.9.4-2,3-5,6-8.7,8.9,0,0,0-.1,0-.2,0,0,0-.1,0-.2,0,0,0-.1,0-.2,0,0,0-.1,0-.2,0,0,0-.1,0-.2,0,0,0-.1,0-.2,0,0,0-.1,0-.2,0,0,0-.1,0-.2,0,0,0-.1,0-.2,0,0,0-.1,0-.2,0,0,0-.2,0-.2,0,0,0-.2,0-.2,0-.1,0-.2,0-.4,0,0,0-.1,0-.2,0,0,0-.2,0-.2,0,0,0-.1,0-.2,0,0,0-.2,0-.2,0,0,0-.2,0-.2,0,0,0-.2,0-.2,0,0,0-.2,0-.2,0,0,0-.2,0-.2,0,0,0-.2,0-.2,0,0,0-.2,0-.2,0,0,0-.2,0-.2,0,0,0-.2,0-.2,0,0,0-.2,0-.2s0-.2,0-.2c0,0,0-.2,0-.2,0,0,0-.2,0-.2,0,0,0-.2,0-.2,0,0,0-.2,0-.3,0,0,0-.2,0-.2,0,0,0-.2-.1-.3,0,0,0-.2,0-.2,0,0,0-.2-.1-.3,0,0,0-.1,0-.2,0,0,0-.2-.1-.3,0,0,0-.1,0-.2,0-.2-.1-.3-.2-.5,0,0,0,0,0-.1,0-.1-.1-.2-.2-.3,0,0,0-.1,0-.2,0,0-.1-.2-.2-.3,0,0,0-.1-.1-.2,0,0,0-.1-.1-.2.5-.4,1.1-.8,1.6-1.1,1.4-1,2.8-2,4.2-3,.6-.4.7-1.3.3-1.9-.4-.6-1.3-.7-1.9-.3-1.4,1-2.8,2-4.2,3-.9.6-1.7,1.2-2.6,1.9h0c-6.1,4.4-12.5,9.3-17.3,15.3-2.3,2.8-4,5.7-5.3,8.7h0c-1.4,3.3-2.3,6.9-2.6,10.6-.5,6,0,12,1.5,17.8-2.1-2.8-4.3-5.3-6.3-7.7-7.2-8.5-12.9-15.2-10.9-27,1.2-7.2,4.3-13.9,8.9-19.5,2.6,4.4,5.6,8,9.1,12.2.6.7,1.1,1.3,1.7,2,.5.6,1.3.6,1.9.2s.6-1.3.2-1.9c-.6-.7-1.2-1.4-1.7-2.1-3.8-4.6-7.2-8.5-9.8-13.4-.2-.4-.6-.6-1-.7-.4,0-.9.1-1.2.4-5.6,6.2-9.3,13.9-10.7,22.2-2.2,13,4.1,20.5,11.5,29.2,4.1,4.9,8.9,10.4,12.7,17.8ZM167.1,664.2c0,0-.2,0-.3,0,0,0-.2,0-.3,0-.1,0-.2,0-.4,0,0,0-.2,0-.2,0-.1,0-.3,0-.4,0,0,0-.1,0-.2,0-.4,0-.8-.2-1.2-.2,0,0-.1,0-.2,0-.1,0-.3,0-.4,0,0,0-.2,0-.2,0-.1,0-.2,0-.4,0,0,0-.2,0-.3,0-.1,0-.2,0-.4,0,0,0-.2,0-.3,0-.1,0-.2,0-.3,0,0,0-.2,0-.3,0-.1,0-.2,0-.3,0,0,0-.2,0-.3,0-.1,0-.2,0-.3,0,0,0-.2,0-.3,0-.1,0-.2,0-.3,0,0,0-.2,0-.3,0-.1,0-.2,0-.3,0,0,0-.2,0-.3,0-.1,0-.2,0-.3,0h-.6c0,0-.2,0-.3,0-.1,0-.2,0-.3,0,0,0-.2,0-.3,0-.1,0-.2,0-.3,0,0,0-.2,0-.3,0-.1,0-.2,0-.3,0,0,0-.2,0-.3,0-.1,0-.2,0-.3,0,0,0-.2,0-.3,0,0,0-.2,0-.3,0,0,0-.2,0-.3,0,0,0-.2,0-.3,0,0,0-.2,0-.3,0,0,0-.2,0-.3,0,0,0-.2,0-.3,0,0,0-.2,0-.3,0,0,0-.2,0-.3,0,0,0-.2,0-.3,0,0,0-.2,0-.3,0,0,0-.2,0-.3,0,0,0-.2,0-.2,0,0,0-.2,0-.3,0,0,0-.2,0-.2,0,0,0-.2,0-.3,0,0,0-.2,0-.2,0,0,0-.2,0-.3,0,0,0-.2,0-.2,0,0,0-.2,0-.3,0,0,0-.1,0-.2,0-.1,0-.2,0-.3,0,0,0-.1,0-.2,0-.2,0-.3,0-.5,0,0,0-.2,0-.3,0-.6.2-.9.8-.8,1.5,0,.4.3.7.7.9.3.1.6.2.9.2.2,0,.5,0,.7-.1,0,0,0,0,.1,0,.2,0,.5,0,.7-.1,0,0,0,0,.1,0,.2,0,.5,0,.8-.1,0,0,0,0,0,0,.3,0,.5,0,.8,0,0,0,0,0,0,0,.3,0,.5,0,.8,0,0,0,0,0,.1,0,.3,0,.5,0,.8,0,0,0,0,0,0,0,.3,0,.6,0,.9,0,0,0,0,0,0,0,.3,0,.6,0,.9,0,0,0,0,0,.1,0,.3,0,.6,0,.9,0,0,0,0,0,.1,0,.6,0,1.2,0,1.8,0,0,0,0,0,.1,0,.3,0,.6,0,.9,0,0,0,0,0,.1,0,.3,0,.6,0,.9,0,0,0,0,0,0,0,.3,0,.6,0,.9,0,0,0,0,0,.1,0,.3,0,.6,0,.9.1,0,0,.1,0,.2,0,.3,0,.6,0,.8.1,0,0,0,0,0,0-1.5,1.1-3,2.2-4.6,3.4-6.4,4.6-13.6,9.7-20.6,17.2-4-8.3-5.8-17.6-5.1-26.9.2-2.9.8-5.8,1.9-8.5,0,0,.1,0,.2,0,0,0,0,0,.1,0,0,0,.1,0,.2,0,0,0,.2,0,.2.1,0,0,0,0,0,0,0,0,.1,0,.2.1,0,0,.2,0,.3.1,0,0,.1,0,.2.1,0,0,.2,0,.2.1,0,0,.1,0,.2.1,0,0,0,0,0,0,0,0,.1,0,.2.1,0,0,0,0,.1,0,0,0,0,0,0,0,0,0,.1,0,.2.2,0,0,.1,0,.2.1,0,0,.2.1.2.2,0,0,.1,0,.2.1,0,0,.2.1.2.2,0,0,0,0,.1.1,0,0,.2.1.2.2,0,0,0,0,0,0,0,0,0,0,.1,0,0,0,.1.1.2.2,0,0,0,0,.1.1,0,0,.1.1.2.2,0,0,0,0,.1.1,0,0,0,0,0,0,0,0,.1.1.2.2s0,0,0,0c0,0,0,0,0,0,0,0,.1.1.2.2h0c0,0,0,.1.1.2,0,0,.1.1.2.2,0,0,0,0,.1.1,0,0,.1.1.2.2,0,0,0,0,.1.1,0,0,.1.1.2.2,0,0,0,0,.1.1,0,0,0,.1.1.2,0,0,0,0,.1.1,0,0,0,.1.1.2,0,0,0,0,0,.1,0,0,0,.1.1.2,0,0,0,0,0,.1,0,0,0,.1.1.2,0,0,0,0,0,0,0,0,0,0,0,0,0,0,0,.1.1.2,0,0,0,0,0,0,0,0,0,0,0,0,0,0,0,.1.1.2,0,0,0,0,0,.1,0,0,0,.1.1.2,0,0,0,0,0,0,0,0,0,0,0,0,0,0,0,.1,0,.2,0,0,0,0,0,0,0,0,0,0,0,0,0,0,0,.1,0,.2,0,0,0,0,0,.1,0,0,0,.1,0,.2,0,0,0,0,0,.1,0,0,0,0,0,.1,0,0,0,0,0,.1,0,0,0,0,0,0,0,0,0,.1-.1.2,0,.1-.1.3-.2.4,0,0,0,.2-.1.3,0,0,0,.2-.1.3,0,.1-.1.3-.2.4,0,.2-.2.4-.2.5,0,.1-.1.3-.2.4,0,.2-.2.4-.2.5,0,.1-.1.3-.2.4,0,.2-.2.4-.2.6,0,.1-.1.3-.2.4,0,0,0,0,0,0,0,0,0,0,0,0,0,.2-.1.3-.2.5,0,.1,0,.2-.1.4,0,.1,0,.2-.1.3,0,.1,0,.2-.1.3,0,.1,0,.2-.1.3-.1.3-.2.7-.4,1-.2.4-.3.9-.4,1.3,0,.1,0,.3-.1.5,0,.3-.2.6-.3.9,0,.2-.1.4-.2.5,0,.3-.2.5-.2.8,0,.2-.1.4-.2.6,0,.3-.1.5-.2.8,0,.2,0,.4-.1.6,0,.3-.1.5-.2.7,0,.2,0,.4-.1.6,0,.3-.1.5-.2.8,0,.2,0,.4-.1.6,0,.3-.1.5-.1.8,0,.2,0,.4-.1.6,0,0,0,.2,0,.3,0,0,0,0,0,0,0,.3,0,.6-.1.9-.1.7.4,1.4,1.1,1.5s1.4-.4,1.5-1.1c0-.4.1-.8.2-1.1,0-.2,0-.4.1-.6,0-.2,0-.5.1-.7,0-.2,0-.4.1-.6,0-.2.1-.5.2-.7,0-.2,0-.4.1-.6,0-.2.1-.5.2-.7,0-.2,0-.4.1-.6,0-.2.1-.5.2-.7,0-.2.1-.4.2-.6,0-.2.1-.5.2-.7,0-.2.1-.4.2-.5,0-.3.2-.5.3-.8,0-.1,0-.3.1-.4.1-.4.3-.8.4-1.2,0,0,0,0,0,0h0c.9-2.6,2-5.2,3.3-7.6,0,0,0,0,0,0,.1-.2.2-.4.3-.6,0-.2.2-.3.3-.5.1-.2.2-.4.4-.7,0-.2.2-.3.3-.5.1-.2.3-.5.4-.7,0-.1.2-.3.2-.4.2-.4.5-.7.7-1.1.2-.3.4-.6.6-.9,0,0,.1-.2.2-.3.1-.2.3-.4.4-.6,0-.1.2-.2.2-.3.1-.2.3-.4.4-.5,0-.1.2-.2.3-.4.1-.2.2-.3.4-.5,0-.1.2-.2.3-.4.1-.2.2-.3.4-.5,0-.1.2-.3.3-.4.1-.2.3-.3.4-.5.1-.1.2-.3.3-.4.1-.2.3-.3.4-.5.1-.1.2-.3.3-.4,0,0,.2-.2.2-.3h.4c.2-.1.3-.2.5-.2,0,0,.1,0,.2,0,.1,0,.2,0,.4,0,0,0,.1,0,.2,0,.1,0,.2,0,.3,0,0,0,.2,0,.3,0,.1,0,.2,0,.3,0,0,0,.2,0,.3,0,.1,0,.2,0,.3,0,0,0,.2,0,.3,0,.1,0,.2,0,.4,0,.1,0,.2,0,.3,0,.1,0,.2,0,.4,0,.1,0,.2,0,.3,0,.1,0,.3,0,.4,0,.1,0,.2,0,.3,0,.1,0,.3,0,.4,0,.1,0,.2,0,.3,0,.1,0,.3,0,.4,0,.1,0,.2,0,.4,0,.1,0,.3,0,.4,0,.1,0,.2,0,.4,0,.1,0,.3,0,.4,0,.1,0,.2,0,.4,0,.1,0,.3,0,.4,0,.1,0,.3,0,.4,0,.1,0,.3,0,.4,0,.1,0,.3,0,.4,0s.3,0,.4,0c.1,0,.3,0,.4,0,.2,0,.3,0,.5,0,.1,0,.3,0,.4,0,.2,0,.3,0,.5,0,.1,0,.3,0,.4,0,.2,0,.3,0,.5,0,.1,0,.3,0,.4,0,.2,0,.3,0,.5,0,.1,0,.2,0,.4,0,.2,0,.4,0,.6,0,.1,0,.2,0,.3,0,.3,0,.5,0,.8,0,0,0,0,0,.1,0,.3,0,.6,0,.9.1,0,0,.2,0,.3,0,.2,0,.4,0,.6,0,.1,0,.2,0,.3,0,.2,0,.4,0,.6,0,.1,0,.2,0,.4,0,.2,0,.3,0,.5,0,.1,0,.3,0,.4,0,.2,0,.3,0,.5.1.1,0,.3,0,.4,0,.2,0,.3,0,.5.1.1,0,.3,0,.4,0,.2,0,.3,0,.5.1.1,0,.3,0,.4.1.2,0,.3,0,.5.1.1,0,.3,0,.4.1.2,0,.3,0,.5.2.1,0,.3,0,.4.1,0,0,.2,0,.3,0-2.6,6.3-7.3,10.7-12,14.4ZM137.8,647.2c1-1.7,2.1-3.4,3.5-5.1h0c4.3-5.4,10-9.9,15.6-14,0,.1.1.3.2.4,0,0,0,0,0,.1,0,0,0,.2.1.3,0,0,0,.1,0,.2,0,0,0,.2.1.2,0,0,0,.1,0,.2,0,0,0,.2.1.2,0,0,0,.1,0,.2,0,0,0,.1,0,.2,0,0,0,.1,0,.2,0,0,0,.1,0,.2,0,0,0,.1,0,.2,0,0,0,.1,0,.2,0,0,0,.1,0,.2,0,0,0,.1,0,.2,0,0,0,.1,0,.2,0,0,0,.2,0,.2,0,0,0,.1,0,.2,0,0,0,.2.1.3,0,0,0,.1,0,.2,0,0,0,.2,0,.3,0,0,0,.1,0,.2v.2c0,0,.1.1.1.2,0,0,0,.1,0,.2,0,0,0,.1,0,.2,0,0,0,.1,0,.2,0,0,0,.1,0,.2,0,0,0,.1,0,.2,0,0,0,.1,0,.2,0,0,0,.1,0,.2,0,0,0,.1,0,.2,0,0,0,.1,0,.2,0,0,0,.1,0,.2,0,0,0,.1,0,.2,0,0,0,.1,0,.2,0,0,0,.2,0,.2,0,0,0,0,0,.1,0,.1,0,.2,0,.3,0,0,0,0,0,.1,0,0,0,.1,0,.2,0,0,0,0,0,.1,0,0,0,.1,0,.2,0,0,0,0,0,.1,0,0,0,.1,0,.2,0,0,0,0,0,.1,0,0,0,.1,0,.2,0,0,0,0,0,.1,0,0,0,.1,0,.2,0,0,0,0,0,.1,0,0,0,.1,0,.2,0,0,0,0,0,.1,0,0,0,.1,0,.2,0,0,0,0,0,.1,0,0,0,.1,0,.2,0,0,0,0,0,0,0,0,0,.2,0,.2-.4.3-.7.6-1.1.9-.4.3-.8.7-1.2,1-.6.5-1.2,1-1.7,1.6-.6.6-1.2,1.2-1.8,1.8-.7.8-1.4,1.5-2.1,2.3h0c-2,2.3-3.9,4.8-5.6,7.4-.3.4-.5.8-.7,1.2,0,.1-.2.3-.2.4-.2.3-.3.5-.5.8,0,0,0,0,0,0,0,0,0,0,0,0,0,0,0,0,0,0,0,0,0-.1-.1-.2,0,0,0-.1-.1-.2,0,0,0,0,0,0,0,0,0,0,0,0,0,0,0-.1-.1-.2,0,0,0-.1-.1-.2,0,0,0,0,0,0,0,0,0,0,0,0,0,0,0,0,0-.1,0,0,0-.1-.1-.2,0,0,0,0-.1-.1,0,0,0,0,0,0,0,0,0,0,0-.1,0,0-.1-.1-.2-.2,0,0,0,0-.1-.1,0,0,0,0,0,0,0,0-.1-.2-.2-.2,0,0-.1-.1-.2-.2,0,0,0,0,0-.1,0,0,0,0-.1-.1,0,0,0-.1-.1-.2s0-.1-.1-.2c0,0,0,0,0,0,0,0,0,0,0,0,0,0-.1-.1-.2-.2,0,0-.1-.1-.2-.2,0,0,0,0,0,0,0,0,0,0,0,0,0,0-.1-.1-.2-.2,0,0-.1-.1-.2-.2,0,0,0,0-.1-.1,0,0,0,0,0,0,0,0,0,0,0,0,0,0-.1-.1-.2-.2,0,0-.1-.1-.2-.2,0,0,0,0,0,0,0,0,0,0,0,0,0,0,0,0,0,0,0,0-.1-.1-.2-.2,0,0-.1-.1-.2-.2,0,0,0,0,0,0,0,0,0,0,0,0,0,0,0,0-.1,0,0,0-.1-.1-.2-.2,0,0-.1-.1-.2-.2,0,0,0,0,0,0,0,0,0,0-.1,0,0,0-.2-.1-.2-.2,0,0-.1,0-.2-.1,0,0,0,0,0,0,0,0,0,0,0,0,0,0-.1,0-.2-.1,0,0-.1,0-.2-.1,0,0-.1,0-.2-.1,0,0,0,0-.1,0,0,0,0,0-.1,0-.1,0-.2-.1-.3-.2,0,0-.1,0-.2-.1,0,0,0,0,0,0,0,0,0,0,0,0-.2,0-.3-.2-.5-.3,0,0,0,0,0,0,0,0,0,0,0,0,0,0-.1,0-.2,0,0,0-.1,0-.2-.1,0,0-.1,0-.2,0-.1,0-.2-.1-.3-.2.3-.6.6-1.2.9-1.8Z"/>
      <path class="st0" d="M167.8,619.8c.3,0,.6,0,.8-.3h0c.6-.5.7-1.3.2-1.9s-1.3-.7-1.9-.2h0c-.6.5-.7,1.3-.2,1.9.3.3.7.5,1.1.5Z"/>
      <path class="st0" d="M174,626.2c0,0,.2,0,.2.1,0,0,.2,0,.3,0,0,0,.2,0,.3,0,.4,0,.7-.1.9-.4.2-.2.4-.6.4-.9s0-.2,0-.3c0,0,0-.2,0-.3,0,0,0-.2-.1-.2,0,0-.1-.1-.2-.2-.3-.3-.8-.5-1.2-.4,0,0-.2,0-.3,0,0,0-.2,0-.2.1,0,0-.1.1-.2.2s-.1.1-.2.2c0,0,0,.1-.1.2,0,0,0,.2,0,.3,0,0,0,.2,0,.3,0,.4.1.7.4.9,0,0,.1.1.2.2Z"/>
    </g>
  </g>
  <g id="Layer_21" data-name="Layer_2">
    <g>
      <path class="st0" d="M621.6,466.2s0,0,0,0c0,0,0,0,0,0,0,.1.1.3.2.4h0c.2.4.6.7,1.1.7,0,0,0,0,0,0,0,0,0,0,0,0h0s0,0,.1,0c0,0,0,0,0,0,0,0,0,0,.1,0,0,0,0,0,0,0,0,0,0,0,.1,0,0,0,0,0,0,0,0,0,0,0,.1,0,0,0,0,0,0,0,.2,0,.3-.2.5-.3h0c0-.1.1-.2.2-.3,0,0,0,0,0,0,7.1-7.9,14.6-13.2,21.2-18,2.5-1.8,4.8-3.4,7-5.1h0c5.5-4.3,11-9.3,13.9-17.2h0c1-2.9,1.7-5.9,1.9-9.4.8-10.5-1.4-20.9-6.3-30.1-.2-.4-.6-.6-1-.7-.4,0-.9.1-1.2.4-1.4,1.5-3,3-4.8,4.6-.6.5-.6,1.3-.1,1.9.5.6,1.3.6,1.9.1,1.4-1.2,2.6-2.3,3.7-3.5,4,8.4,5.8,17.7,5.1,27-.2,2.7-.6,5.1-1.3,7.4-.1,0-.2,0-.3-.1,0,0-.2,0-.3,0-.2,0-.5-.2-.7-.2,0,0,0,0-.1,0-.3,0-.6-.2-.8-.3,0,0-.2,0-.3,0-.2,0-.4-.1-.6-.2-.1,0-.2,0-.3,0-.2,0-.4,0-.6-.1,0,0-.2,0-.3,0-.3,0-.6-.1-.9-.2,0,0,0,0-.1,0-.2,0-.5,0-.7-.1-.1,0-.2,0-.3,0-.2,0-.4,0-.6,0-.1,0-.2,0-.3,0-.2,0-.4,0-.6,0,0,0-.2,0-.3,0-.3,0-.6,0-.9-.1,0,0-.2,0-.2,0-.2,0-.4,0-.6,0-.1,0-.2,0-.3,0-.2,0-.4,0-.6,0-.1,0-.2,0-.3,0-.2,0-.5,0-.7,0,0,0-.1,0-.2,0-.3,0-.6,0-.8,0,0,0-.2,0-.3,0-.2,0-.4,0-.6,0-.1,0-.2,0-.3,0-.2,0-.4,0-.6,0,0,0-.2,0-.3,0-.3,0-.5,0-.8,0s0,0-.1,0c-.2,0-.4,0-.7,0,0,0-.2,0-.3,0-.2,0-.3,0-.5,0,0,0-.2,0-.3,0-.2,0-.4,0-.6,0,0,0-.1,0-.2,0-.3,0-.5,0-.7,0,0,0-.1,0-.2,0-.2,0-.4,0-.5,0,0,0-.2,0-.3,0-.2,0-.3,0-.5,0,0,0-.2,0-.2,0-.2,0-.4,0-.6,0,0,0,0,0-.1,0-.2,0-.4,0-.7,0,0,0-.1,0-.2,0-.1,0-.2,0-.3,0,0,0,0,0,0,0,.4-.4.8-.7,1.2-1.1.1-.1.2-.2.4-.3.3-.3.6-.5.8-.8.1-.1.3-.3.4-.4.3-.3.6-.5.9-.7.1-.1.3-.2.4-.3.4-.3.8-.7,1.3-1h0c.4-.3.8-.6,1.2-.9,4.2-3.2,7.5-6.6,9.8-10,.4-.6.2-1.4-.4-1.9-.6-.4-1.4-.2-1.9.4-2,3-5,6-8.7,8.9,0,0,0-.1,0-.2,0,0,0-.1,0-.2,0,0,0-.1,0-.2,0,0,0-.1,0-.2,0,0,0-.1,0-.2,0,0,0-.1,0-.2,0,0,0-.1,0-.2,0,0,0-.1,0-.2,0,0,0-.1,0-.2,0,0,0-.1,0-.2,0,0,0-.2,0-.2,0,0,0-.2,0-.2,0-.1,0-.2,0-.4,0,0,0-.1,0-.2,0,0,0-.2,0-.2,0,0,0-.1,0-.2,0,0,0-.2,0-.2,0,0,0-.2,0-.2,0,0,0-.2,0-.2,0,0,0-.2,0-.2,0,0,0-.2,0-.2,0,0,0-.2,0-.2,0,0,0-.2,0-.2,0,0,0-.2,0-.2,0,0,0-.2,0-.2,0,0,0-.2,0-.2s0-.2,0-.2c0,0,0-.2,0-.2,0,0,0-.2,0-.2,0,0,0-.2,0-.2,0,0,0-.2,0-.3,0,0,0-.2,0-.2,0,0,0-.2-.1-.3,0,0,0-.2,0-.2,0,0,0-.2-.1-.3,0,0,0-.1,0-.2,0,0,0-.2-.1-.3,0,0,0-.1,0-.2,0-.2-.1-.3-.2-.5,0,0,0,0,0-.1,0-.1-.1-.2-.2-.3,0,0,0-.1,0-.2,0,0-.1-.2-.2-.3,0,0,0-.1-.1-.2,0,0,0-.1-.1-.2.5-.4,1.1-.8,1.6-1.1,1.4-1,2.8-2,4.2-3,.6-.4.7-1.3.3-1.9-.4-.6-1.3-.7-1.9-.3-1.4,1-2.8,2-4.2,3-.9.6-1.7,1.2-2.6,1.9h0c-6.1,4.4-12.5,9.3-17.3,15.3-2.3,2.8-4,5.7-5.3,8.7h0c-1.4,3.3-2.3,6.9-2.6,10.6-.5,6,0,12,1.5,17.8-2.1-2.8-4.3-5.3-6.3-7.7-7.2-8.5-12.9-15.2-10.9-27,1.2-7.2,4.3-13.9,8.9-19.5,2.6,4.4,5.6,8,9.1,12.2.6.7,1.1,1.3,1.7,2,.5.6,1.3.6,1.9.2s.6-1.3.2-1.9c-.6-.7-1.2-1.4-1.7-2.1-3.8-4.6-7.2-8.5-9.8-13.4-.2-.4-.6-.6-1-.7-.4,0-.9.1-1.2.4-5.6,6.2-9.3,13.9-10.7,22.2-2.2,13,4.1,20.5,11.5,29.2,4.1,4.9,8.9,10.4,12.7,17.8ZM651.4,441.1c0,0-.2,0-.3,0,0,0-.2,0-.3,0-.1,0-.2,0-.4,0,0,0-.2,0-.2,0-.1,0-.3,0-.4,0,0,0-.1,0-.2,0-.4,0-.8-.2-1.2-.2,0,0-.1,0-.2,0-.1,0-.3,0-.4,0,0,0-.2,0-.2,0-.1,0-.2,0-.4,0,0,0-.2,0-.3,0-.1,0-.2,0-.4,0,0,0-.2,0-.3,0-.1,0-.2,0-.3,0,0,0-.2,0-.3,0-.1,0-.2,0-.3,0,0,0-.2,0-.3,0-.1,0-.2,0-.3,0,0,0-.2,0-.3,0-.1,0-.2,0-.3,0,0,0-.2,0-.3,0-.1,0-.2,0-.3,0,0,0-.2,0-.3,0-.1,0-.2,0-.3,0h-.6c0,0-.2,0-.3,0-.1,0-.2,0-.3,0,0,0-.2,0-.3,0-.1,0-.2,0-.3,0,0,0-.2,0-.3,0-.1,0-.2,0-.3,0,0,0-.2,0-.3,0-.1,0-.2,0-.3,0,0,0-.2,0-.3,0,0,0-.2,0-.3,0,0,0-.2,0-.3,0,0,0-.2,0-.3,0,0,0-.2,0-.3,0,0,0-.2,0-.3,0,0,0-.2,0-.3,0,0,0-.2,0-.3,0,0,0-.2,0-.3,0,0,0-.2,0-.3,0,0,0-.2,0-.3,0,0,0-.2,0-.3,0,0,0-.2,0-.2,0,0,0-.2,0-.3,0,0,0-.2,0-.2,0,0,0-.2,0-.3,0,0,0-.2,0-.2,0,0,0-.2,0-.3,0,0,0-.2,0-.2,0,0,0-.2,0-.3,0,0,0-.1,0-.2,0-.1,0-.2,0-.3,0,0,0-.1,0-.2,0-.2,0-.3,0-.5,0,0,0-.2,0-.3,0-.6.2-.9.8-.8,1.5,0,.4.3.7.7.9.3.1.6.2.9.2.2,0,.5,0,.7-.1,0,0,0,0,.1,0,.2,0,.5,0,.7-.1,0,0,0,0,.1,0,.2,0,.5,0,.8-.1,0,0,0,0,0,0,.3,0,.5,0,.8,0,0,0,0,0,0,0,.3,0,.5,0,.8,0,0,0,0,0,.1,0,.3,0,.5,0,.8,0,0,0,0,0,0,0,.3,0,.6,0,.9,0,0,0,0,0,0,0,.3,0,.6,0,.9,0,0,0,0,0,.1,0,.3,0,.6,0,.9,0,0,0,0,0,.1,0,.6,0,1.2,0,1.8,0,0,0,0,0,.1,0,.3,0,.6,0,.9,0,0,0,0,0,.1,0,.3,0,.6,0,.9,0,0,0,0,0,0,0,.3,0,.6,0,.9,0,0,0,0,0,.1,0,.3,0,.6,0,.9.1,0,0,.1,0,.2,0,.3,0,.6,0,.8.1,0,0,0,0,0,0-1.5,1.1-3,2.2-4.6,3.4-6.4,4.6-13.6,9.7-20.6,17.2-4-8.3-5.8-17.6-5.1-26.9.2-2.9.8-5.8,1.9-8.5,0,0,.1,0,.2,0,0,0,0,0,.1,0,0,0,.1,0,.2,0,0,0,.2,0,.2.1,0,0,0,0,0,0,0,0,.1,0,.2.1,0,0,.2,0,.3.1,0,0,.1,0,.2.1,0,0,.2,0,.2.1,0,0,.1,0,.2.1,0,0,0,0,0,0,0,0,.1,0,.2.1,0,0,0,0,.1,0,0,0,0,0,0,0,0,0,.1,0,.2.2,0,0,.1,0,.2.1,0,0,.2.1.2.2,0,0,.1,0,.2.1,0,0,.2.1.2.2,0,0,0,0,.1.1,0,0,.2.1.2.2,0,0,0,0,0,0,0,0,0,0,.1,0,0,0,.1.1.2.2,0,0,0,0,.1.1,0,0,.1.1.2.2,0,0,0,0,.1.1,0,0,0,0,0,0,0,0,.1.1.2.2s0,0,0,0c0,0,0,0,0,0,0,0,.1.1.2.2h0c0,0,0,.1.1.2,0,0,.1.1.2.2,0,0,0,0,.1.1,0,0,.1.1.2.2,0,0,0,0,.1.1,0,0,.1.1.2.2,0,0,0,0,.1.1,0,0,0,.1.1.2,0,0,0,0,.1.1,0,0,0,.1.1.2,0,0,0,0,0,.1,0,0,0,.1.1.2,0,0,0,0,0,.1,0,0,0,.1.1.2,0,0,0,0,0,0,0,0,0,0,0,0,0,0,0,.1.1.2,0,0,0,0,0,0,0,0,0,0,0,0,0,0,0,.1.1.2,0,0,0,0,0,.1,0,0,0,.1.1.2,0,0,0,0,0,0,0,0,0,0,0,0,0,0,0,.1,0,.2,0,0,0,0,0,0,0,0,0,0,0,0,0,0,0,.1,0,.2,0,0,0,0,0,.1,0,0,0,.1,0,.2,0,0,0,0,0,.1,0,0,0,0,0,.1,0,0,0,0,0,.1,0,0,0,0,0,0,0,0,0,.1-.1.2,0,.1-.1.3-.2.4,0,0,0,.2-.1.3,0,0,0,.2-.1.3,0,.1-.1.3-.2.4,0,.2-.2.4-.2.5,0,.1-.1.3-.2.4,0,.2-.2.4-.2.5,0,.1-.1.3-.2.4,0,.2-.2.4-.2.6,0,.1-.1.3-.2.4,0,0,0,0,0,0,0,0,0,0,0,0,0,.2-.1.3-.2.5,0,.1,0,.2-.1.4,0,.1,0,.2-.1.3,0,.1,0,.2-.1.3,0,.1,0,.2-.1.3-.1.3-.2.7-.4,1-.2.4-.3.9-.4,1.3,0,.1,0,.3-.1.5,0,.3-.2.6-.3.9,0,.2-.1.4-.2.5,0,.3-.2.5-.2.8,0,.2-.1.4-.2.6,0,.3-.1.5-.2.8,0,.2,0,.4-.1.6,0,.3-.1.5-.2.7,0,.2,0,.4-.1.6,0,.3-.1.5-.2.8,0,.2,0,.4-.1.6,0,.3-.1.5-.1.8,0,.2,0,.4-.1.6,0,0,0,.2,0,.3,0,0,0,0,0,0,0,.3,0,.6-.1.9-.1.7.4,1.4,1.1,1.5s1.4-.4,1.5-1.1c0-.4.1-.8.2-1.1,0-.2,0-.4.1-.6,0-.2,0-.5.1-.7,0-.2,0-.4.1-.6,0-.2.1-.5.2-.7,0-.2,0-.4.1-.6,0-.2.1-.5.2-.7,0-.2,0-.4.1-.6,0-.2.1-.5.2-.7,0-.2.1-.4.2-.6,0-.2.1-.5.2-.7,0-.2.1-.4.2-.5,0-.3.2-.5.3-.8,0-.1,0-.3.1-.4.1-.4.3-.8.4-1.2,0,0,0,0,0,0h0c.9-2.6,2-5.2,3.3-7.6,0,0,0,0,0,0,.1-.2.2-.4.3-.6,0-.2.2-.3.3-.5.1-.2.2-.4.4-.7,0-.2.2-.3.3-.5.1-.2.3-.5.4-.7,0-.1.2-.3.2-.4.2-.4.5-.7.7-1.1.2-.3.4-.6.6-.9,0,0,.1-.2.2-.3.1-.2.3-.4.4-.6,0-.1.2-.2.2-.3.1-.2.3-.4.4-.5,0-.1.2-.2.3-.4.1-.2.2-.3.4-.5,0-.1.2-.2.3-.4.1-.2.2-.3.4-.5,0-.1.2-.3.3-.4.1-.2.3-.3.4-.5.1-.1.2-.3.3-.4.1-.2.3-.3.4-.5.1-.1.2-.3.3-.4,0,0,.2-.2.2-.3h.4c.2-.1.3-.2.5-.2,0,0,.1,0,.2,0,.1,0,.2,0,.4,0,0,0,.1,0,.2,0,.1,0,.2,0,.3,0,0,0,.2,0,.3,0,.1,0,.2,0,.3,0,0,0,.2,0,.3,0,.1,0,.2,0,.3,0,0,0,.2,0,.3,0,.1,0,.2,0,.4,0,.1,0,.2,0,.3,0,.1,0,.2,0,.4,0,.1,0,.2,0,.3,0,.1,0,.3,0,.4,0,.1,0,.2,0,.3,0,.1,0,.3,0,.4,0,.1,0,.2,0,.3,0,.1,0,.3,0,.4,0,.1,0,.2,0,.4,0,.1,0,.3,0,.4,0,.1,0,.2,0,.4,0,.1,0,.3,0,.4,0,.1,0,.2,0,.4,0,.1,0,.3,0,.4,0,.1,0,.3,0,.4,0,.1,0,.3,0,.4,0,.1,0,.3,0,.4,0s.3,0,.4,0c.1,0,.3,0,.4,0,.2,0,.3,0,.5,0,.1,0,.3,0,.4,0,.2,0,.3,0,.5,0,.1,0,.3,0,.4,0,.2,0,.3,0,.5,0,.1,0,.3,0,.4,0,.2,0,.3,0,.5,0,.1,0,.2,0,.4,0,.2,0,.4,0,.6,0,.1,0,.2,0,.3,0,.3,0,.5,0,.8,0,0,0,0,0,.1,0,.3,0,.6,0,.9.1,0,0,.2,0,.3,0,.2,0,.4,0,.6,0,.1,0,.2,0,.3,0,.2,0,.4,0,.6,0,.1,0,.2,0,.4,0,.2,0,.3,0,.5,0,.1,0,.3,0,.4,0,.2,0,.3,0,.5.1.1,0,.3,0,.4,0,.2,0,.3,0,.5.1.1,0,.3,0,.4,0,.2,0,.3,0,.5.1.1,0,.3,0,.4.1.2,0,.3,0,.5.1.1,0,.3,0,.4.1.2,0,.3,0,.5.2.1,0,.3,0,.4.1,0,0,.2,0,.3,0-2.6,6.3-7.3,10.7-12,14.4ZM622.1,424.1c1-1.7,2.1-3.4,3.5-5.1h0c4.3-5.4,10-9.9,15.6-14,0,.1.1.3.2.4,0,0,0,0,0,.1,0,0,0,.2.1.3,0,0,0,.1,0,.2,0,0,0,.2.1.2,0,0,0,.1,0,.2,0,0,0,.2.1.2,0,0,0,.1,0,.2,0,0,0,.1,0,.2,0,0,0,.1,0,.2,0,0,0,.1,0,.2,0,0,0,.1,0,.2,0,0,0,.1,0,.2,0,0,0,.1,0,.2,0,0,0,.1,0,.2,0,0,0,.1,0,.2,0,0,0,.2,0,.2,0,0,0,.1,0,.2,0,0,0,.2.1.3,0,0,0,.1,0,.2,0,0,0,.2,0,.3,0,0,0,.1,0,.2v.2c0,0,.1.1.1.2,0,0,0,.1,0,.2,0,0,0,.1,0,.2,0,0,0,.1,0,.2,0,0,0,.1,0,.2,0,0,0,.1,0,.2,0,0,0,.1,0,.2,0,0,0,.1,0,.2,0,0,0,.1,0,.2,0,0,0,.1,0,.2,0,0,0,.1,0,.2,0,0,0,.1,0,.2,0,0,0,.1,0,.2,0,0,0,.2,0,.2,0,0,0,0,0,.1,0,.1,0,.2,0,.3,0,0,0,0,0,.1,0,0,0,.1,0,.2,0,0,0,0,0,.1,0,0,0,.1,0,.2,0,0,0,0,0,.1,0,0,0,.1,0,.2,0,0,0,0,0,.1,0,0,0,.1,0,.2,0,0,0,0,0,.1,0,0,0,.1,0,.2,0,0,0,0,0,.1,0,0,0,.1,0,.2,0,0,0,0,0,.1,0,0,0,.1,0,.2,0,0,0,0,0,.1,0,0,0,.1,0,.2,0,0,0,0,0,0,0,0,0,.2,0,.2-.4.3-.7.6-1.1.9-.4.3-.8.7-1.2,1-.6.5-1.2,1-1.7,1.6-.6.6-1.2,1.2-1.8,1.8-.7.8-1.4,1.5-2.1,2.3h0c-2,2.3-3.9,4.8-5.6,7.4-.3.4-.5.8-.7,1.2,0,.1-.2.3-.2.4-.2.3-.3.5-.5.8,0,0,0,0,0,0,0,0,0,0,0,0,0,0,0,0,0,0,0,0,0-.1-.1-.2,0,0,0-.1-.1-.2,0,0,0,0,0,0,0,0,0,0,0,0,0,0,0-.1-.1-.2,0,0,0-.1-.1-.2,0,0,0,0,0,0,0,0,0,0,0,0,0,0,0,0,0-.1,0,0,0-.1-.1-.2,0,0,0,0-.1-.1,0,0,0,0,0,0,0,0,0,0,0-.1,0,0-.1-.1-.2-.2,0,0,0,0-.1-.1,0,0,0,0,0,0,0,0-.1-.2-.2-.2,0,0-.1-.1-.2-.2,0,0,0,0,0-.1,0,0,0,0-.1-.1,0,0,0-.1-.1-.2s0-.1-.1-.2c0,0,0,0,0,0,0,0,0,0,0,0,0,0-.1-.1-.2-.2,0,0-.1-.1-.2-.2,0,0,0,0,0,0,0,0,0,0,0,0,0,0-.1-.1-.2-.2,0,0-.1-.1-.2-.2,0,0,0,0-.1-.1,0,0,0,0,0,0,0,0,0,0,0,0,0,0-.1-.1-.2-.2,0,0-.1-.1-.2-.2,0,0,0,0,0,0,0,0,0,0,0,0,0,0,0,0,0,0,0,0-.1-.1-.2-.2,0,0-.1-.1-.2-.2,0,0,0,0,0,0,0,0,0,0,0,0,0,0,0,0-.1,0,0,0-.1-.1-.2-.2,0,0-.1-.1-.2-.2,0,0,0,0,0,0,0,0,0,0-.1,0,0,0-.2-.1-.2-.2,0,0-.1,0-.2-.1,0,0,0,0,0,0,0,0,0,0,0,0,0,0-.1,0-.2-.1,0,0-.1,0-.2-.1,0,0-.1,0-.2-.1,0,0,0,0-.1,0,0,0,0,0-.1,0-.1,0-.2-.1-.3-.2,0,0-.1,0-.2-.1,0,0,0,0,0,0,0,0,0,0,0,0-.2,0-.3-.2-.5-.3,0,0,0,0,0,0,0,0,0,0,0,0,0,0-.1,0-.2,0,0,0-.1,0-.2-.1,0,0-.1,0-.2,0-.1,0-.2-.1-.3-.2.3-.6.6-1.2.9-1.8Z"/>
      <path class="st0" d="M652.1,396.7c.3,0,.6,0,.8-.3h0c.6-.5.7-1.3.2-1.9s-1.3-.7-1.9-.2h0c-.6.5-.7,1.3-.2,1.9.3.3.7.5,1.1.5Z"/>
      <path class="st0" d="M658.3,403.1c0,0,.2,0,.2.1,0,0,.2,0,.3,0,0,0,.2,0,.3,0,.4,0,.7-.1.9-.4.2-.2.4-.6.4-.9s0-.2,0-.3c0,0,0-.2,0-.3,0,0,0-.2-.1-.2,0,0-.1-.1-.2-.2-.3-.3-.8-.5-1.2-.4,0,0-.2,0-.3,0,0,0-.2,0-.2.1,0,0-.1.1-.2.2s-.1.1-.2.2c0,0,0,.1-.1.2,0,0,0,.2,0,.3,0,0,0,.2,0,.3,0,.4.1.7.4.9,0,0,.1.1.2.2Z"/>
    </g>
  </g>
</svg>