<?xml version="1.0" ?><!DOCTYPE svg  PUBLIC '-//W3C//DTD SVG 1.1//EN'  'http://www.w3.org/Graphics/SVG/1.1/DTD/svg11.dtd'><svg xmlns="http://www.w3.org/2000/svg" xmlns:xlink="http://www.w3.org/1999/xlink" version="1.1" id="Layer_1" width="512px" height="512px" viewBox="0 0 512 512" enable-background="new 0 0 512 512" xml:space="preserve"><path d="M498.5,256c0-64.774-25.225-125.671-71.027-171.473S320.774,13.5,256,13.5S130.329,38.725,84.527,84.527  S13.5,191.226,13.5,256s25.225,125.671,71.027,171.473c45.775,45.775,106.628,70.996,171.359,71.025  c0.038,0,0.076,0.005,0.114,0.005c0.043,0,0.085-0.005,0.128-0.005c64.726-0.033,125.573-25.253,171.345-71.025  C473.275,381.671,498.5,320.774,498.5,256z M38.868,268.5h76.285c0.96,30.328,5.425,58.691,13.347,84.692H61.464  C48.547,327.442,40.593,298.793,38.868,268.5z M61.464,158.808H128.5c-7.922,26.001-12.387,54.365-13.347,84.692H38.868  C40.593,213.207,48.547,184.558,61.464,158.808z M473.132,243.5h-76.285c-0.96-30.328-5.425-58.692-13.347-84.692h67.036  C463.453,184.558,471.407,213.207,473.132,243.5z M371.843,243.5H268.5v-84.692h88.609  C365.809,184.474,370.784,212.878,371.843,243.5z M268.5,133.808v-87.79c11.262,6.552,26.895,17.469,42.643,34.346  c14.494,15.533,26.489,33.46,35.904,53.444H268.5z M243.5,46.078v87.73h-78.783c9.207-19.431,20.952-36.953,35.237-52.469  C215.887,64.033,231.961,52.8,243.5,46.078z M243.5,158.808V243.5H140.147c1.02-30.925,5.864-59.199,14.481-84.692H243.5z   M140.157,268.5H243.5v84.692h-88.609C146.191,327.526,141.216,299.122,140.157,268.5z M243.5,378.192v87.79  c-11.262-6.552-26.895-17.469-42.643-34.346c-14.494-15.533-26.489-33.46-35.904-53.444H243.5z M268.5,465.925v-87.732h78.783  c-9.207,19.431-20.952,36.953-35.237,52.469C296.112,447.968,280.033,459.204,268.5,465.925z M268.5,353.192V268.5h103.353  c-1.02,30.925-5.864,59.199-14.481,84.692H268.5z M396.847,268.5h76.285c-1.725,30.293-9.679,58.942-22.596,84.692H383.5  C391.422,327.191,395.887,298.828,396.847,268.5z M435.839,133.808h-61.323c-11.116-26.616-26.267-50.322-45.094-70.5  c-6.296-6.747-12.596-12.662-18.691-17.83C362.352,58.908,406.572,90.872,435.839,133.808z M201.269,45.478  c-6.095,5.167-12.395,11.083-18.691,17.83c-18.827,20.178-33.978,43.884-45.094,70.5H76.161  C105.428,90.872,149.648,58.908,201.269,45.478z M76.161,378.192h61.323c11.116,26.616,26.267,50.322,45.094,70.5  c6.296,6.747,12.596,12.662,18.691,17.83C149.648,453.092,105.428,421.128,76.161,378.192z M310.731,466.522  c6.095-5.167,12.395-11.083,18.691-17.83c18.827-20.178,33.978-43.884,45.094-70.5h61.323  C406.572,421.128,362.352,453.092,310.731,466.522z"/></svg>